<?xml version="1.0" encoding="utf-8"?>
<!-- Generator: Adobe Illustrator 26.3.1, SVG Export Plug-In . SVG Version: 6.00 Build 0)  -->
<svg version="1.1" xmlns="http://www.w3.org/2000/svg" xmlns:xlink="http://www.w3.org/1999/xlink" x="0px" y="0px"
	 viewBox="0 0 1374.8 425.2" style="enable-background:new 0 0 1374.8 425.2;" xml:space="preserve">
<style type="text/css">
	.st0{fill-rule:evenodd;clip-rule:evenodd;fill:url(#SVGID_1_);}
	.st1{fill-rule:evenodd;clip-rule:evenodd;fill:url(#SVGID_00000165220094755465959730000016573516265271686589_);}
	.st2{fill-rule:evenodd;clip-rule:evenodd;fill:#FFFFFF;}
	.st3{fill:#FFFFFF;}
	.st4{fill-rule:evenodd;clip-rule:evenodd;fill:url(#SVGID_00000165224866953459135830000006035518420868968080_);}
	.st5{fill-rule:evenodd;clip-rule:evenodd;fill:url(#SVGID_00000032637284901233577980000005806477859275347879_);}
</style>
<g id="b">
	<g>
		
			<linearGradient id="SVGID_1_" gradientUnits="userSpaceOnUse" x1="-259.5389" y1="734.2852" x2="-254.3216" y2="739.9957" gradientTransform="matrix(32 0 0 -32 8432 23802)">
			<stop  offset="0" style="stop-color:#93F4FE"/>
			<stop  offset="1" style="stop-color:#535FD7"/>
		</linearGradient>
		<path class="st0" d="M211.8,70.05c-78.28,0-141.73,63.45-141.73,141.73s63.45,141.73,141.73,141.73s141.73-63.45,141.73-141.73
			C353.45,133.55,290.04,70.14,211.8,70.05z"/>
		
			<linearGradient id="SVGID_00000008124545310779014920000003428041569451499962_" gradientUnits="userSpaceOnUse" x1="-245.6588" y1="736.2678" x2="-243.2551" y2="729.4373" gradientTransform="matrix(19 0 0 -23.944 4909 17729.8359)">
			<stop  offset="0" style="stop-color:#FFFFFF;stop-opacity:0.48"/>
			<stop  offset="1" style="stop-color:#FFFFFF;stop-opacity:0"/>
		</linearGradient>
		<path style="fill-rule:evenodd;clip-rule:evenodd;fill:url(#SVGID_00000008124545310779014920000003428041569451499962_);" d="
			M327.07,294.28c-11.41,4.04-23.43,6.1-35.54,6.09c-58.7,0-106.3-47.6-106.3-106.3c0-55.23,42.13-100.63,96.01-105.8
			c43.11,24.31,72.24,70.51,72.3,123.52C353.54,242.56,343.73,271.04,327.07,294.28z"/>
	</g>
</g>
<g id="l">
	<g>
		<g>
			<g>
				<path class="st2" d="M167.31,288.84c0,14.92,0,29.51,0,44.23c-8.53,0-16.9,0-25.57,0c0-3.44,0-6.81,0-10.18
					c0-32.83,0.04-65.65-0.02-98.47c-0.02-15.87,3.11-31.02,10.24-45.24c8.67-17.29,21.35-30.95,38.01-40.84
					c12.74-7.57,26.52-12.03,41.31-13.3c19.51-1.68,37.99,1.85,55.26,11.08c17.77,9.49,31.39,23.17,40.84,40.94
					c6.19,11.64,9.85,24.04,10.97,37.15c1.62,18.99-2,36.98-10.81,53.89c-4.11,7.89-9.27,15.06-15.39,21.57
					c-13.41,14.26-29.66,23.67-48.65,28.39c-9.55,2.37-19.27,3.26-29.08,2.61c-22.5-1.5-42.36-9.51-59.32-24.43
					c-2.32-2.04-4.46-4.28-6.69-6.42C168.15,289.55,167.85,289.31,167.31,288.84z M313.11,222.75
					c-0.08-40.08-31.83-71.21-69.98-72.6c-42.24-1.54-75.76,31.81-75.78,72.35c-0.02,40.82,32.44,72.25,71.76,72.83
					C280.7,295.93,313.17,262.5,313.11,222.75z"/>
				<path class="st2" d="M99.21,143.79c0-12.71,10.48-23.11,23.12-23.31c12.7-0.2,23.81,10.36,23.74,23.42
					c-0.06,12.98-10.6,23.3-23.85,23.29C109.68,167.18,99.22,156.54,99.21,143.79z"/>
			</g>
		</g>
	</g>
</g>
<g id="t">
	<g>
		<path class="st3" d="M454.29,286.7c2.32,0,4.12-0.51,5.38-1.52c1.48-1.18,2.22-2.79,2.22-4.82v-34.77h-15.84v39.59l-8.87,19.54
			h-29.46l8.87-19.54V120.47h61.13c4.01,0,7.28,1.1,9.82,3.3c2.53,2.2,3.8,4.82,3.8,7.87v158.62c0,4.06-1.8,7.53-5.38,10.41
			c-3.38,2.71-7.5,4.06-12.35,4.06h-30.09l7.92-18.02H454.29z M446.05,137.48v33.5h15.84v-30.71c0-1.86-1.27-2.79-3.8-2.79H446.05z
			 M461.89,226.81v-36.8h-15.84v36.8H461.89z M536,286.7c2.11,0,3.8-0.51,5.07-1.52c1.47-1.18,2.22-2.79,2.22-4.82v-34.77h-15.84
			v39.59l-8.87,19.54h-29.46l8.87-19.54V120.47h61.76c3.59,0,6.65,1.1,9.19,3.3c2.53,2.2,3.8,4.82,3.8,7.87v158.62
			c0,4.23-1.69,7.7-5.07,10.41c-3.38,2.71-7.6,4.06-12.67,4.06h-30.09l7.92-18.02H536z M527.45,137.48v33.5h15.84v-30.71
			c0-1.86-1.16-2.79-3.48-2.79H527.45z M543.29,226.81v-36.8h-15.84v36.8H543.29z M633.55,131.13h54.48v62.18
			c0,5.58-2.43,10.32-7.28,14.21c-4.86,4.06-10.77,6.09-17.74,6.09h-29.46l9.5-20.3h7.6c2.11,0,3.8-0.59,5.07-1.78
			c1.27-1.01,1.9-2.37,1.9-4.06v-36.29h-46.24v68.27h76.65v65.48c0,5.58-2.43,10.32-7.28,14.21c-4.86,3.72-10.77,5.58-17.74,5.58
			h-33.89l8.87-19.8h11.72c1.9,0,3.59-0.59,5.07-1.77c1.27-1.02,1.9-2.37,1.9-4.06v-39.08h-77.6V131.13h18.05l3.17-10.41h35.79
			L633.55,131.13z M648.76,273.76h-68.41v-19.54h68.41V273.76z"/>
		<path class="st3" d="M811.87,304.47c-4.44,0-8.24-0.59-11.4-1.78c-4.01-1.35-7.29-3.13-9.82-5.33c-2.96-1.86-5.07-4.31-6.33-7.36
			c-1.69-2.7-2.53-5.75-2.53-9.14v-73.85h-10.14l-8.87,97.46h-37.37l8.87-97.46h-9.19v-23.86h35.16v-62.43h38.32v62.43h35.16v23.86
			h-13.94v69.79c0,1.02,0.42,1.86,1.27,2.54c1.27,1.01,2.53,1.52,3.8,1.52h7.92l7.28,23.6H811.87z M725.09,124.79h25.34l5.39,49.23
			h-25.02L725.09,124.79z M828.03,174.02H803l6.02-49.23h24.7L828.03,174.02z M969.29,120.73c4.64,0,9.08,0.68,13.3,2.03
			c4.43,1.69,8.24,3.81,11.4,6.35c2.74,2.2,5.28,5.16,7.6,8.88c1.69,2.88,2.53,6.43,2.53,10.66v11.42H960.1v-7.61
			c0-2.2-0.95-4.06-2.85-5.58c-1.9-1.52-4.23-2.28-6.97-2.28h-63.03v15.48h-44.03v-39.34H969.29z M920.83,176.31h83.3v23.86h-95.02
			l-10.14,22.08h17.74v-13.96h44.03v13.96h43.39v23.6h-43.39v16.75h43.39v24.11h-43.39v17.77h-44.03V286.7h-73.48v-24.11h73.48
			v-16.75h-73.48l21.85-45.68h-21.85v-23.86h33.26l4.43-9.14h44.03L920.83,176.31z"/>
		<path class="st3" d="M1095.03,208.79h-64.93v-26.14h277.14v26.14H1141.9l-37.69,63.96h138.09l-20.9-34.01h46.24l39.59,64.97
			h-45.92l-3.17-4.82h-169.13h-47.19L1095.03,208.79z M1048.78,121.49h239.76v26.14h-239.76V121.49z"/>
	</g>
</g>
<g id="d">
	<g>
		
			<linearGradient id="SVGID_00000057844452986244458480000005261456867690839435_" gradientUnits="userSpaceOnUse" x1="-243.9995" y1="738.0218" x2="-243.3313" y2="738.7531" gradientTransform="matrix(32 0 0 -32 8432 23802)">
			<stop  offset="0" style="stop-color:#93F4FE"/>
			<stop  offset="1" style="stop-color:#535FD7"/>
		</linearGradient>
		<path style="fill-rule:evenodd;clip-rule:evenodd;fill:url(#SVGID_00000057844452986244458480000005261456867690839435_);" d="
			M634.91,155.23c-10.03,0-18.15,8.13-18.15,18.15s8.13,18.15,18.15,18.15s18.15-8.13,18.15-18.15
			C653.05,163.36,644.93,155.24,634.91,155.23z"/>
		
			<linearGradient id="SVGID_00000119807044161027623860000014027759945702752403_" gradientUnits="userSpaceOnUse" x1="-224.7521" y1="733.8242" x2="-224.4442" y2="732.9493" gradientTransform="matrix(19 0 0 -23.944 4909 17729.8359)">
			<stop  offset="0" style="stop-color:#FFFFFF;stop-opacity:0.48"/>
			<stop  offset="1" style="stop-color:#FFFFFF;stop-opacity:0"/>
		</linearGradient>
		<path style="fill-rule:evenodd;clip-rule:evenodd;fill:url(#SVGID_00000119807044161027623860000014027759945702752403_);" d="
			M649.67,183.95c-1.46,0.52-3,0.78-4.55,0.78c-7.52,0-13.61-6.1-13.61-13.61c0-7.07,5.4-12.89,12.3-13.55
			c5.52,3.11,9.25,9.03,9.26,15.82C653.06,177.32,651.81,180.97,649.67,183.95z"/>
	</g>
</g>
</svg>
