<?xml version="1.0" encoding="UTF-8" standalone="no"?>
<!-- Created with Inkscape (http://www.inkscape.org/) -->

<svg
   version="1.1"
   id="svg2"
   xml:space="preserve"
   width="566.92932"
   height="566.92932"
   viewBox="0 0 566.92932 566.92932"
   sodipodi:docname="logo-15x15.ai"
   xmlns:inkscape="http://www.inkscape.org/namespaces/inkscape"
   xmlns:sodipodi="http://sodipodi.sourceforge.net/DTD/sodipodi-0.dtd"
   xmlns="http://www.w3.org/2000/svg"
   xmlns:svg="http://www.w3.org/2000/svg"><defs
     id="defs6"><clipPath
       clipPathUnits="userSpaceOnUse"
       id="clipPath16"><path
         d="M 0,425.197 H 425.197 V 0 H 0 Z"
         id="path14" /></clipPath><clipPath
       clipPathUnits="userSpaceOnUse"
       id="clipPath28"><path
         d="M 0,425.197 H 425.197 V 0 H 0 Z"
         id="path26" /></clipPath><clipPath
       clipPathUnits="userSpaceOnUse"
       id="clipPath44"><path
         d="M 0,425.197 H 425.197 V 0 H 0 Z"
         id="path42" /></clipPath></defs><sodipodi:namedview
     id="namedview4"
     pagecolor="#ffffff"
     bordercolor="#666666"
     borderopacity="1.0"
     inkscape:pageshadow="2"
     inkscape:pageopacity="0.0"
     inkscape:pagecheckerboard="0" /><g
     id="g8"
     inkscape:groupmode="layer"
     inkscape:label="logo-15x15"
     transform="matrix(1.3333333,0,0,-1.3333333,0,566.92933)"><g
       id="g10"><g
         id="g12"
         clip-path="url(#clipPath16)"><g
           id="g18"
           transform="translate(329.5279)"><path
             d="m 0,0 h -233.859 c -52.837,0 -95.669,42.832 -95.669,95.669 v 233.858 c 0,52.837 42.832,95.67 95.669,95.67 H 0 c 52.836,0 95.669,-42.833 95.669,-95.67 V 95.669 C 95.669,42.832 52.836,0 0,0"
             style="fill:#2ea8e5;fill-opacity:1;fill-rule:nonzero;stroke:none"
             id="path20" /></g></g></g><g
       id="g22"><g
         id="g24"
         clip-path="url(#clipPath28)"><g
           id="g30"
           transform="translate(363.3658,190.5342)"><path
             d="M 0,0 C -0.119,58.641 -47.74,104.172 -104.975,106.208 -168.33,108.461 -218.61,59.672 -218.639,0.363 c -0.028,-59.71 48.657,-105.698 107.641,-106.545 C -48.619,-107.074 0.088,-58.161 0,0 m -218.707,-96.699 v -64.707 h -38.35 v 14.894 c 0,48.022 0.055,96.044 -0.023,144.064 -0.037,23.216 4.662,45.378 15.357,66.183 13,25.286 32.02,45.271 57.022,59.752 19.108,11.067 39.772,17.595 61.971,19.456 29.261,2.455 56.988,-2.71 82.892,-16.204 26.647,-13.884 47.084,-33.903 61.266,-59.902 9.287,-17.032 14.773,-35.173 16.451,-54.351 2.434,-27.774 -2.994,-54.101 -16.217,-78.842 -6.168,-11.545 -13.9,-22.04 -23.076,-31.555 -20.117,-20.866 -44.488,-34.631 -72.975,-41.534 -14.316,-3.471 -28.912,-4.773 -43.619,-3.818 -33.75,2.193 -63.547,13.913 -88.977,35.749 -3.478,2.986 -6.696,6.257 -10.04,9.39 -0.414,0.39 -0.869,0.738 -1.682,1.425"
             style="fill:#2ea8e5;fill-opacity:1;fill-rule:evenodd;stroke:none"
             id="path32" /></g><g
           id="g34"
           transform="translate(42.5191,306.0474)"><path
             d="M 0,0 C -0.007,18.603 15.724,33.81 34.682,34.105 53.738,34.403 70.395,18.952 70.296,-0.155 70.199,-19.142 54.392,-34.24 34.521,-34.229 15.7,-34.221 0.007,-18.66 0,0"
             style="fill:#2ea8e5;fill-opacity:1;fill-rule:evenodd;stroke:none"
             id="path36" /></g></g></g><g
       id="g38"><g
         id="g40"
         clip-path="url(#clipPath44)"><g
           id="g46"
           transform="translate(363.3658,190.3047)"><path
             d="m 0,0 c -0.12,58.731 -47.74,104.333 -104.975,106.371 -63.355,2.256 -113.634,-46.607 -113.664,-106.007 -0.028,-59.803 48.657,-105.862 107.641,-106.71 C -48.619,-107.24 0.088,-58.252 0,0 m -218.707,-96.849 v -64.807 h -38.349 v 14.918 c 0,48.094 0.054,96.191 -0.024,144.285 -0.037,23.252 4.662,45.449 15.357,66.285 13.001,25.325 32.02,45.342 57.022,59.844 19.108,11.084 39.772,17.621 61.971,19.487 29.262,2.458 56.989,-2.715 82.892,-16.23 C -13.19,113.028 7.247,92.979 21.428,66.939 30.715,49.882 36.201,31.712 37.88,12.503 40.313,-15.313 34.885,-41.68 21.663,-66.46 15.495,-78.022 7.761,-88.534 -1.415,-98.063 c -20.116,-20.898 -44.486,-34.685 -72.973,-41.599 -14.317,-3.476 -28.912,-4.778 -43.62,-3.82 -33.75,2.194 -63.547,13.931 -88.976,35.799 -3.479,2.992 -6.697,6.27 -10.041,9.408 -0.414,0.39 -0.869,0.737 -1.682,1.426"
             style="fill:#ffffff;fill-opacity:1;fill-rule:evenodd;stroke:none"
             id="path48" /></g><g
           id="g50"
           transform="translate(42.5191,305.9947)"><path
             d="M 0,0 C -0.007,18.632 15.724,33.862 34.682,34.158 53.738,34.456 70.395,18.982 70.296,-0.155 70.199,-19.171 54.392,-34.292 34.521,-34.282 15.7,-34.272 0.007,-18.687 0,0"
             style="fill:#ffffff;fill-opacity:1;fill-rule:evenodd;stroke:none"
             id="path52" /></g></g></g></g></svg>
