<svg xmlns="http://www.w3.org/2000/svg" xmlns:xlink="http://www.w3.org/1999/xlink" viewBox="0 0 1321.93 360.77"><defs><style>.cls-1,.cls-2,.cls-3,.cls-6,.cls-7{fill-rule:evenodd;}.cls-1{fill:url(#未命名的渐变_8);}.cls-2{fill:url(#未命名的渐变_2);}.cls-3{fill:#fff;}.cls-4{fill:#f1f1f1;}.cls-5{fill:#2ea8e5;}.cls-6{fill:url(#未命名的渐变_8-2);}.cls-7{fill:url(#未命名的渐变_2-2);}</style><linearGradient id="未命名的渐变_8" x1="-290.42" y1="702.12" x2="-285.2" y2="707.83" gradientTransform="matrix(32, 0, 0, -32, 9389.62, 22741.29)" gradientUnits="userSpaceOnUse"><stop offset="0" stop-color="#93f4fe"/><stop offset="1" stop-color="#535fd7"/></linearGradient><linearGradient id="未命名的渐变_2" x1="-276.53" y1="704.1" x2="-274.13" y2="697.26" gradientTransform="matrix(19, 0, 0, -23.94, 5465.04, 16928.07)" gradientUnits="userSpaceOnUse"><stop offset="0" stop-color="#fff" stop-opacity="0.48"/><stop offset="1" stop-color="#fff" stop-opacity="0"/></linearGradient><linearGradient id="未命名的渐变_8-2" x1="-274.96" y1="705.82" x2="-274.2" y2="706.65" xlink:href="#未命名的渐变_8"/><linearGradient id="未命名的渐变_2-2" x1="-255.66" y1="701.75" x2="-255.31" y2="700.75" xlink:href="#未命名的渐变_2"/></defs><g id="图层_6" data-name="图层 6"><g id="图层_8" data-name="图层 8"><path class="cls-1" d="M181.13,38.62c-78.38,0-141.91,63.46-141.91,141.74s63.53,141.73,141.91,141.73S323,258.64,323,180.36,259.46,38.71,181.13,38.62Z"/><path class="cls-2" d="M296.54,262.85a106.33,106.33,0,1,1-45.89-206,141.6,141.6,0,0,1,45.89,206Z"/></g></g><g id="LOGO"><path class="cls-3" d="M136.41,256.7v44.23H110.85V290.75q0-49.24,0-98.47c0-15.87,3.11-31,10.24-45.24a97.28,97.28,0,0,1,38-40.84A95.92,95.92,0,0,1,200.4,92.9a98.35,98.35,0,0,1,96.1,52,95.57,95.57,0,0,1,11,37.15,97.63,97.63,0,0,1-26.19,75.46,97.77,97.77,0,0,1-48.65,28.39,94.34,94.34,0,0,1-29.08,2.61c-22.5-1.5-42.37-9.51-59.32-24.44-2.32-2-4.46-4.27-6.69-6.42C137.26,257.41,137,257.17,136.41,256.7Zm145.81-66.1a72.88,72.88,0,1,0-74,72.58A72.62,72.62,0,0,0,282.22,190.6Z"/><path class="cls-3" d="M68.32,111.64a23.44,23.44,0,1,1,23,23.4C78.79,135,68.33,124.4,68.32,111.64Z"/></g><g id="鹏辉云"><path class="cls-4" d="M423.4,254.56a8.44,8.44,0,0,0,5.38-1.52,5.84,5.84,0,0,0,2.22-4.82V213.45H415.16V253l-8.87,19.54H376.84L385.7,253V88.33h61.13a14.44,14.44,0,0,1,9.82,3.3,10.07,10.07,0,0,1,3.8,7.87V258.11q0,6.09-5.38,10.41a19.12,19.12,0,0,1-12.35,4.06H412.63l7.92-18Zm-8.24-149.23v33.5H431V108.12q0-2.79-3.8-2.79ZM431,194.67v-36.8H415.16v36.8Zm74.11,59.89a7.91,7.91,0,0,0,5.07-1.52,5.87,5.87,0,0,0,2.22-4.82V213.45H496.56V253l-8.87,19.54H458.24L467.1,253V88.33h61.77a13.53,13.53,0,0,1,9.18,3.3,10.1,10.1,0,0,1,3.8,7.87V258.11a12.73,12.73,0,0,1-5.07,10.41,19.59,19.59,0,0,1-12.66,4.06H494l7.91-18Zm-8.55-149.23v33.5H512.4V108.12c0-1.86-1.17-2.79-3.49-2.79Zm15.84,89.34v-36.8H496.56v36.8ZM602.66,99h54.48v62.18q0,8.37-7.28,14.21a26.74,26.74,0,0,1-17.74,6.09H602.66l9.51-20.3h7.6a7.09,7.09,0,0,0,5.06-1.78,4.93,4.93,0,0,0,1.9-4.06V119H580.49v68.27h76.65v65.47q0,8.39-7.28,14.22-7.29,5.58-17.74,5.58H598.23l8.87-19.8h11.72a7.83,7.83,0,0,0,5.06-1.77,5,5,0,0,0,1.91-4.06V207.86h-77.6V99h18l3.17-10.41H605.2Zm15.21,142.63H549.45V222.08h68.42Z"/><path class="cls-4" d="M781,272.33a32.49,32.49,0,0,1-11.4-1.78,28.81,28.81,0,0,1-9.82-5.33,15.6,15.6,0,0,1-6.33-7.36,16.8,16.8,0,0,1-2.54-9.14V174.87H740.76l-8.87,97.46H694.52l8.86-97.46H694.2V151h35.15V88.58h38.33V151h35.16v23.85H788.9v69.79a3.1,3.1,0,0,0,1.27,2.54,6,6,0,0,0,3.8,1.52h7.92l7.28,23.61ZM694.2,92.64h25.33l5.39,49.24h-25Zm102.93,49.24h-25l6-49.24h24.71ZM938.4,88.58a43.47,43.47,0,0,1,13.3,2A42.33,42.33,0,0,1,963.1,97a35.17,35.17,0,0,1,7.6,8.88,20.74,20.74,0,0,1,2.54,10.66v11.42h-44v-7.61a6.94,6.94,0,0,0-2.85-5.59,10.82,10.82,0,0,0-7-2.28h-63v15.48h-44V88.58Zm-48.47,55.58h83.31V168h-95L868.08,190.1h17.74v-14h44v14h43.4v23.6h-43.4v16.75h43.4v24.11h-43.4v17.77h-44V254.56H812.34V230.45h73.48V213.7H812.34L834.19,168H812.34V144.16h33.25L850,135h44Z"/><path class="cls-4" d="M1064.14,176.65H999.21V150.51h277.13v26.14H1111l-37.69,63.95h138.09l-20.9-34h46.24l39.59,65h-45.92l-3.17-4.83H1010.93Zm-46.25-87.31h239.77v26.15H1017.89Z"/></g><g id="点"><circle class="cls-5" cx="604.02" cy="141.04" r="18.41" transform="translate(77.18 468.42) rotate(-45)"/></g><g id="图层_7" data-name="图层 7"><g id="图层_9" data-name="图层 9"><path class="cls-6" d="M603.18,120.85a20.71,20.71,0,1,0,20.7,20.71A20.71,20.71,0,0,0,603.18,120.85Z"/><path class="cls-7" d="M620,153.61a15.53,15.53,0,1,1-6.7-30.1,20.72,20.72,0,0,1,6.7,30.1Z"/></g></g></svg>