<svg xmlns="http://www.w3.org/2000/svg" xmlns:xlink="http://www.w3.org/1999/xlink" viewBox="0 0 425.2 425.2"><defs><style>.cls-1,.cls-2,.cls-3{fill-rule:evenodd;}.cls-1{fill:url(#未命名的渐变_3);}.cls-2{fill:url(#未命名的渐变_2);}.cls-3{fill:#fff;}</style><linearGradient id="未命名的渐变_3" x1="-718.45" y1="742.19" x2="-714.84" y2="731.94" gradientTransform="matrix(32, 0, 0, -32, 23136.26, 23773.4)" gradientUnits="userSpaceOnUse"><stop offset="0" stop-color="#fe7e1f"/><stop offset="1" stop-color="#ffcf7b"/></linearGradient><linearGradient id="未命名的渐变_2" x1="-694.2" y1="737.65" x2="-690.6" y2="727.41" gradientTransform="matrix(19, 0, 0, -23.94, 13446.96, 17708.22)" gradientUnits="userSpaceOnUse"><stop offset="0" stop-color="#fff" stop-opacity="0.48"/><stop offset="1" stop-color="#fff" stop-opacity="0"/></linearGradient></defs><g id="底座"><g id="图层_5" data-name="图层 5"><path class="cls-1" d="M212.6,0C95.18,0,0,95.18,0,212.6S95.18,425.2,212.6,425.2,425.2,330,425.2,212.6,330,.13,212.6,0Z"/><path class="cls-2" d="M385.49,336.34a159.47,159.47,0,1,1-68.74-309,212.55,212.55,0,0,1,68.74,309Z"/></g></g><g id="logo白"><path class="cls-3" d="M144.66,331.74v64.81H106.31V381.63q0-72.13,0-144.28c0-23.26,4.66-45.45,15.35-66.29a144,144,0,0,1,57-59.84,146.41,146.41,0,0,1,62-19.49c29.26-2.46,57,2.71,82.89,16.23a144.11,144.11,0,0,1,61.26,60,140.1,140.1,0,0,1,.24,133.4A141.42,141.42,0,0,1,362,333c-20.12,20.89-44.49,34.68-73,41.59a144.22,144.22,0,0,1-43.62,3.82c-33.75-2.19-63.55-13.93-89-35.8-3.48-3-6.69-6.26-10-9.4C145.93,332.78,145.47,332.43,144.66,331.74Zm218.71-96.85c-.12-58.73-47.74-104.33-105-106.37-63.35-2.26-113.63,46.61-113.66,106,0,59.8,48.65,105.86,107.64,106.71C314.75,342.13,363.45,293.14,363.37,234.89Z"/><path class="cls-3" d="M42.52,119.2c0-18.63,15.72-33.86,34.68-34.16s35.71,15.18,35.62,34.32S96.91,153.49,77,153.48C58.22,153.47,42.53,137.89,42.52,119.2Z"/></g></svg>