<?xml version="1.0" encoding="utf-8"?>
<!-- Generator: Adobe Illustrator 26.3.1, SVG Export Plug-In . SVG Version: 6.00 Build 0)  -->
<svg version="1.1" xmlns="http://www.w3.org/2000/svg" xmlns:xlink="http://www.w3.org/1999/xlink" x="0px" y="0px"
	 viewBox="0 0 425.2 425.2" style="enable-background:new 0 0 425.2 425.2;" xml:space="preserve">
<style type="text/css">
	.st0{fill-rule:evenodd;clip-rule:evenodd;fill:url(#SVGID_1_);}
	.st1{fill-rule:evenodd;clip-rule:evenodd;fill:url(#SVGID_00000083073975281136726860000004152518949798050217_);}
	.st2{fill-rule:evenodd;clip-rule:evenodd;fill:#FFFFFF;}
</style>
<g id="b">
	<g>
		
			<linearGradient id="SVGID_1_" gradientUnits="userSpaceOnUse" x1="-718.4463" y1="742.1863" x2="-714.8408" y2="731.9405" gradientTransform="matrix(32 0 0 -32 23136.2754 23773.3984)">
			<stop  offset="0" style="stop-color:#FE7E1F"/>
			<stop  offset="1" style="stop-color:#FFCF7B"/>
		</linearGradient>
		<path class="st0" d="M212.6,0C95.18,0,0,95.18,0,212.6s95.18,212.6,212.6,212.6s212.6-95.18,212.6-212.6
			C425.06,95.24,329.95,0.13,212.6,0z"/>
		
			<linearGradient id="SVGID_00000127020595648623242510000007021370664555776916_" gradientUnits="userSpaceOnUse" x1="-694.2027" y1="737.6518" x2="-690.5972" y2="727.406" gradientTransform="matrix(19 0 0 -23.944 13446.9668 17708.2168)">
			<stop  offset="0" style="stop-color:#FFFFFF;stop-opacity:0.48"/>
			<stop  offset="1" style="stop-color:#FFFFFF;stop-opacity:0"/>
		</linearGradient>
		<path style="fill-rule:evenodd;clip-rule:evenodd;fill:url(#SVGID_00000127020595648623242510000007021370664555776916_);" d="
			M385.49,336.34c-17.12,6.06-35.15,9.15-53.31,9.13c-88.06,0-159.45-71.39-159.45-159.45c0-82.85,63.19-150.94,144.01-158.7
			C381.41,63.78,425.1,133.09,425.2,212.6C425.2,258.76,410.49,301.49,385.49,336.34z"/>
	</g>
</g>
<g id="l">
	<g>
		<g>
			<g>
				<path class="st2" d="M144.66,331.74c0,21.86,0,43.24,0,64.81c-12.79,0-25.35,0-38.35,0c0-5.04,0-9.98,0-14.92
					c0-48.09,0.05-96.19-0.02-144.29c-0.04-23.25,4.66-45.45,15.36-66.29c13-25.33,32.02-45.34,57.02-59.84
					c19.11-11.08,39.77-17.62,61.97-19.49c29.26-2.46,56.99,2.71,82.89,16.23c26.65,13.9,47.08,33.95,61.27,59.99
					c9.29,17.06,14.77,35.23,16.45,54.44c2.43,27.82-3,54.18-16.22,78.96c-6.17,11.56-13.9,22.07-23.08,31.6
					c-20.12,20.9-44.49,34.68-72.97,41.6c-14.32,3.48-28.91,4.78-43.62,3.82c-33.75-2.19-63.55-13.93-88.98-35.8
					c-3.48-2.99-6.7-6.27-10.04-9.41C145.93,332.78,145.47,332.43,144.66,331.74z M363.37,234.89
					c-0.12-58.73-47.74-104.33-104.97-106.37c-63.36-2.26-113.63,46.61-113.66,106.01c-0.03,59.8,48.66,105.86,107.64,106.71
					C314.75,342.13,363.45,293.14,363.37,234.89z"/>
				<path class="st2" d="M42.52,119.2c-0.01-18.63,15.72-33.86,34.68-34.16c19.06-0.3,35.71,15.18,35.61,34.31
					c-0.1,19.02-15.9,34.14-35.77,34.13C58.22,153.47,42.53,137.89,42.52,119.2z"/>
			</g>
		</g>
	</g>
</g>
</svg>
